<svg xmlns="http://www.w3.org/2000/svg" version="1.1" xmlns:xlink="http://www.w3.org/1999/xlink" xmlns:svgjs="http://svgjs.com/svgjs" width="1000" height="1000"><rect width="1000" height="1000" rx="500" ry="500" fill="#555555"></rect><g transform="matrix(1,0,0,1,0,0)"><svg xmlns="http://www.w3.org/2000/svg" version="1.1" xmlns:xlink="http://www.w3.org/1999/xlink" xmlns:svgjs="http://svgjs.com/svgjs" width="1000" height="1000"><svg xmlns="http://www.w3.org/2000/svg" version="1.1" xmlns:xlink="http://www.w3.org/1999/xlink" xmlns:svgjs="http://svgjs.dev/svgjs" width="1000" height="1000" viewBox="0 0 1000 1000"><rect width="1000" height="1000" fill="#ffffff"></rect><g transform="matrix(0.7,0,0,0.7,150,150)"><svg viewBox="0 0 280 280" data-background-color="#ffffff" preserveAspectRatio="xMidYMid meet" height="1000" width="1000" xmlns="http://www.w3.org/2000/svg" xmlns:xlink="http://www.w3.org/1999/xlink"><g id="tight-bounds" transform="matrix(1,0,0,1,0,0)"><svg viewBox="0 0 280 280" height="280" width="280"><g><svg viewBox="0 0 280 280" height="280" width="280"><g><svg viewBox="0 0 280 280" height="280" width="280"><g id="textblocktransform"><svg viewBox="0 0 280 280" height="280" width="280" id="textblock"><g><svg viewBox="0 0 280 280" height="280" width="280"><g transform="matrix(1,0,0,1,74.00336708925556,74.50102533064941)"><svg viewBox="0 0 131.99326582148888 130.99794933870118" height="130.99794933870118" width="131.99326582148888"><g><svg xmlns="http://www.w3.org/2000/svg" xmlns:xlink="http://www.w3.org/1999/xlink" version="1.1" x="0" y="0" viewBox="0.4595463275909424 0.75 65.04045104980469 64.55000305175781" enable-background="new 0 0 66 66" xml:space="preserve" height="130.99794933870118" width="131.99326582148888" class="icon-o-0" data-fill-palette-color="accent" id="o-0"><g fill="#3a6328" data-fill-palette-color="accent"><g fill="#3a6328" data-fill-palette-color="accent"><path d="M51.9 24c1.2-1.5 0.9-3.7-0.6-4.9L28.6 1.5c-1.3-1-3-1-4.3 0L1.8 19.1c-1.5 1.2-1.8 3.3-0.6 4.9 1.2 1.5 3.4 1.8 4.9 0.6l20.4-16 20.6 16C48.5 25.7 50.8 25.5 51.9 24z" fill="#000000" data-fill-palette-color="accent"></path></g><g fill="#3a6328" data-fill-palette-color="accent"><path d="M22.6 65.3c0.6 0 1-0.4 1-1v-6.8H1.5c-0.6 0-1 0.4-1 1v5.8c0 0.6 0.4 1 1 1H22.6z" fill="#000000" data-fill-palette-color="accent"></path></g><g fill="#3a6328" data-fill-palette-color="accent"><path d="M65.5 64.3v-5.8c0-0.6-0.4-1-1-1H29.8v6.8c0 0.6 0.4 1 1 1h33.7C65.1 65.3 65.5 64.8 65.5 64.3z" fill="#000000" data-fill-palette-color="accent"></path></g><g fill="#3a6328" data-fill-palette-color="accent"><rect x="36.1" y="45.2" width="5" height="7.5" fill="#000000" data-fill-palette-color="accent"></rect></g><g fill="#3a6328" data-fill-palette-color="accent"><rect x="12.1" y="45.2" width="5" height="7.5" fill="#000000" data-fill-palette-color="accent"></rect></g><g fill="#3a6328" data-fill-palette-color="accent"><rect x="24.1" y="29.1" width="5" height="7.5" fill="#000000" data-fill-palette-color="accent"></rect></g><g fill="#3a6328" data-fill-palette-color="accent"><path d="M48 55.6V27.2c-2.2-0.5-1.6-0.8-21.5-16.1l-19.2 15c-0.7 0.5-1.4 0.9-2.2 1v28.4h16.5V44.2c0-0.6 0.4-1 1-1h8.1c0.5 0 1 0.4 1 1v11.4H48zM19.1 53.7c0 0.6-0.5 1-1 1h-7c-0.6 0-1-0.4-1-1v-9.5c0-0.6 0.4-1 1-1h7c0.5 0 1 0.4 1 1V53.7zM19.1 37.6c0 0.6-0.5 1-1 1h-7c-0.6 0-1-0.4-1-1v-9.5c0-0.5 0.4-1 1-1h7c0.5 0 1 0.5 1 1V37.6zM26.6 15.1c2.4 0 4.3 1.9 4.3 4.3 0 2.4-1.9 4.3-4.3 4.3s-4.3-1.9-4.3-4.3C22.3 17.1 24.2 15.1 26.6 15.1zM31.1 37.6c0 0.6-0.4 1-1 1h-7c-0.6 0-1-0.4-1-1v-9.5c0-0.5 0.4-1 1-1h7c0.6 0 1 0.5 1 1V37.6zM34.1 28.1c0-0.5 0.4-1 1-1h7c0.5 0 1 0.5 1 1v9.5c0 0.6-0.5 1-1 1h-7c-0.6 0-1-0.4-1-1V28.1zM34.1 44.2c0-0.6 0.4-1 1-1h7c0.5 0 1 0.4 1 1v9.5c0 0.6-0.5 1-1 1h-7c-0.6 0-1-0.4-1-1V44.2z" fill="#000000" data-fill-palette-color="accent"></path></g><g fill="#3a6328" data-fill-palette-color="accent"><rect x="23.6" y="45.2" width="6.1" height="10.4" fill="#000000" data-fill-palette-color="accent"></rect></g><g fill="#3a6328" data-fill-palette-color="accent"><circle cx="26.6" cy="19.4" r="2.3" fill="#000000" data-fill-palette-color="accent"></circle></g><g fill="#3a6328" data-fill-palette-color="accent"><rect x="12.1" y="29.1" width="5" height="7.5" fill="#000000" data-fill-palette-color="accent"></rect></g><g fill="#3a6328" data-fill-palette-color="accent"><rect x="36.1" y="29.1" width="5" height="7.5" fill="#000000" data-fill-palette-color="accent"></rect></g><g fill="#3a6328" data-fill-palette-color="accent"><path d="M38.8 5.7v1.2l9.5 7.4V5.7c0-0.5-0.5-1-1-1h-7.5C39.3 4.7 38.8 5.1 38.8 5.7z" fill="#000000" data-fill-palette-color="accent"></path></g><g fill="#3a6328" data-fill-palette-color="accent"><path d="M64.5 30.8H50v24.8h15.5V31.8C65.5 31.3 65.1 30.8 64.5 30.8zM56.8 33.7c0-0.5 0.5-1 1-1 0.5 0 1 0.5 1 1V37c0 0.5-0.5 1-1 1-0.5 0-1-0.5-1-1V33.7zM52.5 37c0.2-1.9-0.6-4.3 1-4.3 0.5 0 1 0.5 1 1V37c0 0.5-0.5 1-1 1C53 38 52.5 37.6 52.5 37zM61.9 51.7h-7.7c-0.5 0-1-0.4-1-1 0-0.6 0.5-1 1-1h7.7c0.5 0 1 0.4 1 1C62.9 51.3 62.5 51.7 61.9 51.7zM61.9 44.7h-7.7c-0.5 0-1-0.4-1-1 0-0.6 0.5-1 1-1h7.7c0.5 0 1 0.4 1 1C62.9 44.2 62.5 44.7 61.9 44.7zM63 37c0 0.5-0.4 1-1 1-0.5 0-1-0.5-1-1v-3.3c0-0.5 0.5-1 1-1 0.6 0 1 0.5 1 1V37z" fill="#000000" data-fill-palette-color="accent"></path></g></g></svg></g></svg></g><g><path d="M3.247 99.697v0c0.335-0.908 0.748-2.067 1.24-3.475 0.491-1.409 0.822-2.344 0.992-2.804v0c1.441-3.903 3.714-6.521 6.821-7.853 3.098-1.328 6.205-1.418 9.319-0.269v0c3.474 1.282 5.969 3.453 7.484 6.513 1.506 3.063 1.543 6.534 0.112 10.412v0c-0.107 0.29-0.446 1.139-1.016 2.548-0.576 1.406-1.029 2.594-1.357 3.561v0l-1.502 4.389c-0.095 0.044-0.287 0.012-0.578-0.095v0c-0.334-0.123-0.488-0.22-0.462-0.289v0c0.116-0.315 0.205-0.809 0.267-1.481 0.055-0.674-0.002-1.111-0.172-1.31v0c-0.23-0.271-1.325-0.768-3.286-1.492v0l-13.582-5.013c-1.419-0.524-2.48-0.822-3.184-0.895v0c-0.223 0.004-0.535 0.293-0.933 0.87-0.403 0.568-0.663 1.009-0.779 1.324v0c-0.035 0.095-0.194 0.09-0.478-0.015v0c-0.315-0.116-0.503-0.239-0.563-0.369v0c0.511-1.23 1.064-2.649 1.657-4.257zM8.172 99.72v0l14.234 5.254c1.003 0.37 1.98 0.527 2.933 0.469v0c0.275-0.006 0.69-0.58 1.247-1.721 0.557-1.141 0.956-2.037 1.196-2.686v0c2.032-5.505-0.512-9.571-7.631-12.198v0c-2.73-1.008-5.32-1.143-7.77-0.406-2.452 0.743-4.191 2.505-5.218 5.285v0l-0.066 0.18c-0.954 2.585-1.292 4.094-1.015 4.525v0c0.315 0.467 1.011 0.9 2.09 1.298z" fill="#000000" data-fill-palette-color="primary"></path><path d="M21.942 61.528l0.284-0.221 21.027 5.058c1.252 0.3 2.221 0.513 2.908 0.639v0c0.404 0.088 0.885-0.064 1.445-0.455 0.56-0.391 0.924-0.712 1.094-0.962v0c0.057-0.083 0.285 0.011 0.685 0.284v0c0.089 0.061 0.181 0.152 0.277 0.274v0c-1.544 2.039-2.388 3.163-2.531 3.374v0c-0.015 0.022-0.797 1.283-2.346 3.782v0c-0.14 0.027-0.337-0.055-0.59-0.243-0.259-0.193-0.36-0.331-0.304-0.415v0c0.174-0.255 0.337-0.608 0.489-1.057 0.152-0.45 0.167-0.764 0.046-0.945v0c-0.146-0.156-0.302-0.291-0.468-0.405v0c-0.272-0.185-0.619-0.369-1.04-0.55-0.416-0.178-0.752-0.305-1.009-0.382v0l-0.435-0.114-4.46-1.136c-0.131 0.001-0.217 0.031-0.258 0.093v0c-0.625 0.786-1.203 1.568-1.732 2.345v0c-0.749 1.1-1.611 2.477-2.584 4.132v0l-0.017 0.221 2.557 3.731c0.809 1.08 1.414 1.757 1.814 2.029v0c0.3 0.204 0.57 0.262 0.809 0.173v0c0.279-0.087 0.609-0.309 0.991-0.666 0.382-0.358 0.637-0.631 0.767-0.82v0c0.042-0.061 0.194-0.01 0.457 0.153 0.258 0.159 0.426 0.294 0.504 0.405v0c-1.544 2.039-2.339 3.091-2.384 3.158v0c-0.288 0.422-0.528 0.799-0.721 1.13-0.194 0.332-0.412 0.7-0.655 1.104-0.243 0.404-0.479 0.792-0.708 1.164v0c-0.14 0.027-0.327-0.04-0.56-0.198v0c-0.294-0.201-0.413-0.343-0.356-0.426v0c0.174-0.255 0.345-0.619 0.511-1.091 0.167-0.472 0.207-0.847 0.121-1.126v0c-0.269-0.834-0.924-2.004-1.964-3.51v0l-10.393-15.147c-0.075-0.116-0.205-0.29-0.389-0.522-0.18-0.237-0.315-0.414-0.406-0.532-0.086-0.124-0.19-0.288-0.311-0.493-0.121-0.204-0.203-0.37-0.246-0.497-0.042-0.118-0.083-0.26-0.125-0.427-0.041-0.166-0.041-0.321 0-0.464 0.035-0.147 0.104-0.295 0.206-0.445zM31.153 72.771v0c0.794-1.069 1.327-1.804 1.599-2.204v0c0.632-0.928 1.254-1.911 1.865-2.951v0l-0.096-0.199-8.739-2.198 5.2 7.533c0.083 0.057 0.14 0.063 0.171 0.019z" fill="#000000" data-fill-palette-color="primary"></path><path d="M54.644 27.902l0.341-0.117 18.269 11.574c1.088 0.688 1.936 1.202 2.546 1.543v0c0.354 0.214 0.858 0.225 1.514 0.036 0.656-0.19 1.105-0.376 1.347-0.557v0c0.081-0.061 0.266 0.103 0.556 0.489v0c0.065 0.086 0.122 0.202 0.174 0.349v0c-2.119 1.431-3.281 2.224-3.485 2.377v0c-0.021 0.016-1.168 0.957-3.441 2.823v0c-0.141-0.02-0.301-0.161-0.48-0.422-0.183-0.266-0.234-0.429-0.153-0.49v0c0.247-0.186 0.515-0.467 0.804-0.843 0.289-0.377 0.405-0.67 0.348-0.879v0c-0.087-0.195-0.192-0.373-0.313-0.534v0c-0.198-0.263-0.467-0.549-0.807-0.857-0.336-0.302-0.613-0.531-0.831-0.687v0l-0.375-0.248-3.854-2.515c-0.124-0.042-0.215-0.04-0.275 0.005v0c-0.845 0.542-1.644 1.096-2.396 1.66v0c-1.064 0.799-2.324 1.825-3.78 3.077v0l-0.086 0.204 1.216 4.356c0.417 1.284 0.771 2.119 1.062 2.506v0c0.218 0.29 0.455 0.432 0.709 0.425v0c0.292 0.008 0.676-0.096 1.154-0.311 0.477-0.215 0.807-0.392 0.989-0.528v0c0.059-0.044 0.187 0.053 0.384 0.292 0.192 0.234 0.308 0.416 0.347 0.546v0c-2.119 1.431-3.211 2.171-3.276 2.22v0c-0.409 0.307-0.758 0.586-1.048 0.837-0.29 0.252-0.615 0.529-0.975 0.833-0.36 0.304-0.709 0.595-1.047 0.874v0c-0.141-0.02-0.296-0.143-0.465-0.369v0c-0.214-0.285-0.28-0.458-0.2-0.518v0c0.247-0.186 0.526-0.475 0.836-0.868 0.31-0.393 0.469-0.735 0.477-1.026v0c0.014-0.876-0.228-2.195-0.725-3.956v0l-4.949-17.691c-0.034-0.134-0.1-0.341-0.199-0.619-0.094-0.282-0.165-0.494-0.212-0.635-0.042-0.145-0.087-0.334-0.136-0.567-0.049-0.233-0.073-0.416-0.073-0.55-0.001-0.125 0.005-0.273 0.02-0.444 0.015-0.171 0.064-0.317 0.149-0.44 0.081-0.128 0.193-0.246 0.339-0.355zM59.733 41.517v0c1.097-0.756 1.838-1.279 2.226-1.57v0c0.898-0.674 1.803-1.404 2.717-2.191v0l-0.026-0.22-7.562-4.9 2.49 8.808c0.061 0.081 0.112 0.105 0.155 0.073z" fill="#000000" data-fill-palette-color="primary"></path><path d="M72.265 16.486l4.197-1.878c0.694-0.325 1.504-0.735 2.431-1.228 0.927-0.494 1.725-0.897 2.394-1.212v0c0.761-0.357 1.582-0.6 2.463-0.731 0.887-0.134 1.802-0.139 2.743-0.016 0.947 0.12 1.853 0.501 2.717 1.142 0.865 0.641 1.562 1.528 2.093 2.66v0c0.314 0.669 0.509 1.458 0.585 2.365 0.07 0.91-0.001 1.86-0.212 2.849-0.211 0.99-0.675 1.942-1.389 2.856-0.715 0.914-1.65 1.642-2.807 2.184v0c-1.296 0.608-2.34 0.7-3.132 0.277v0c-0.208-0.095-0.366-0.345-0.473-0.747v0c-0.018-0.103-0.002-0.155 0.049-0.157v0c0.814-0.07 1.649-0.305 2.508-0.707v0c1.156-0.542 1.925-1.492 2.305-2.851 0.377-1.365 0.252-2.716-0.376-4.055v0c-0.77-1.643-1.74-2.777-2.908-3.402-1.166-0.619-2.501-0.576-4.004 0.128v0c-1.041 0.488-1.813 0.946-2.317 1.376v0c-0.104 0.079-0.145 0.205-0.122 0.38 0.026 0.166 0.152 0.538 0.377 1.115 0.223 0.571 0.594 1.41 1.114 2.517v0l5.802 12.379c0.727 1.552 1.294 2.515 1.699 2.889v0c0.255 0.244 0.78 0.295 1.575 0.153 0.792-0.148 1.336-0.292 1.634-0.433v0c0.091-0.043 0.213 0.097 0.364 0.42v0c0.1 0.213 0.16 0.396 0.18 0.55v0c-2.367 0.968-3.897 1.615-4.591 1.941v0l-4.154 2.159c-0.098-0.036-0.229-0.227-0.392-0.574v0c-0.14-0.298-0.176-0.463-0.109-0.494v0c0.323-0.151 0.74-0.432 1.253-0.844 0.513-0.411 0.778-0.747 0.797-1.008v0c0.033-0.357-0.394-1.482-1.282-3.374v0l-6.144-13.109c-0.642-1.369-1.19-2.326-1.646-2.87v0c-0.155-0.157-0.577-0.171-1.266-0.041-0.686 0.121-1.181 0.253-1.485 0.395v0c-0.091 0.043-0.201-0.073-0.329-0.346v0c-0.143-0.304-0.19-0.523-0.142-0.658z" fill="#000000" data-fill-palette-color="primary"></path><path d="M109.648 3.122l0.359 0.033 11.897 18.061c0.709 1.074 1.271 1.892 1.686 2.453v0c0.235 0.34 0.69 0.558 1.366 0.655 0.676 0.097 1.162 0.112 1.456 0.046v0c0.098-0.022 0.2 0.203 0.307 0.675v0c0.024 0.105 0.028 0.235 0.014 0.389v0c-2.52 0.434-3.905 0.678-4.154 0.734v0c-0.026 0.006-1.458 0.392-4.296 1.159v0c-0.12-0.076-0.209-0.27-0.265-0.581-0.057-0.318-0.037-0.488 0.062-0.51v0c0.302-0.068 0.662-0.214 1.079-0.438 0.418-0.225 0.644-0.444 0.679-0.658v0c0-0.214-0.021-0.419-0.065-0.616v0c-0.072-0.321-0.2-0.692-0.384-1.113-0.182-0.414-0.341-0.736-0.475-0.968v0l-0.24-0.38-2.48-3.877c-0.096-0.089-0.18-0.125-0.252-0.109v0c-0.993 0.147-1.949 0.323-2.867 0.529v0c-1.299 0.291-2.869 0.708-4.71 1.251v0l-0.163 0.15-0.682 4.472c-0.147 1.342-0.168 2.249-0.063 2.721v0c0.079 0.354 0.237 0.581 0.473 0.679v0c0.263 0.127 0.656 0.191 1.179 0.191 0.523 0 0.897-0.025 1.12-0.076v0c0.072-0.016 0.149 0.125 0.229 0.424 0.079 0.292 0.11 0.506 0.092 0.641v0c-2.52 0.434-3.82 0.659-3.899 0.677v0c-0.498 0.112-0.932 0.222-1.299 0.332-0.368 0.11-0.779 0.229-1.232 0.359-0.453 0.129-0.891 0.251-1.313 0.366v0c-0.12-0.076-0.211-0.252-0.273-0.528v0c-0.078-0.348-0.068-0.532 0.031-0.554v0c0.302-0.068 0.675-0.217 1.119-0.447 0.444-0.23 0.73-0.477 0.857-0.74v0c0.373-0.793 0.695-2.095 0.965-3.904v0l2.761-18.162c0.025-0.136 0.049-0.352 0.072-0.646 0.03-0.296 0.053-0.518 0.068-0.666 0.022-0.149 0.058-0.34 0.109-0.572 0.051-0.232 0.105-0.409 0.16-0.532 0.05-0.115 0.117-0.247 0.201-0.396 0.084-0.15 0.189-0.263 0.316-0.34 0.126-0.083 0.278-0.145 0.455-0.184zM108.691 17.625v0c1.31-0.238 2.202-0.41 2.674-0.516v0c1.095-0.245 2.221-0.539 3.378-0.881v0l0.066-0.211-4.879-7.576-1.35 9.054c0.022 0.098 0.059 0.142 0.111 0.13z" fill="#000000" data-fill-palette-color="primary"></path><path d="M140.114 1.709v0c-1.149-0.012-2.044 0.066-2.685 0.235v0c-0.101 0.026-0.183 0.122-0.244 0.29-0.069 0.161-0.123 0.543-0.164 1.147-0.046 0.598-0.076 1.522-0.088 2.772v0l-0.048 4.638c-0.008 0.739 1.098 1.12 3.315 1.143v0l0.958 0.01c0.894 0.009 1.826-0.428 2.796-1.313 0.964-0.884 1.453-2.065 1.468-3.544v0c0.036-3.549-1.733-5.341-5.308-5.378zM140.746 0.022v0c0.867 0.009 1.746 0.146 2.638 0.41 0.891 0.265 1.771 0.657 2.639 1.177 0.862 0.52 1.567 1.256 2.115 2.209 0.555 0.953 0.826 2.055 0.813 3.306v0c-0.011 1.069-0.426 2.187-1.245 3.354-0.812 1.168-1.913 2.064-3.304 2.689v0c-0.256 0.098-0.332 0.225-0.226 0.38v0c1.249 2.695 2.691 4.955 4.327 6.78v0c2.426 2.707 4.405 4.068 5.936 4.084v0c0.079 0.155 0.118 0.337 0.116 0.546v0c-0.002 0.229-0.045 0.42-0.127 0.573v0c-0.283 0.071-0.626 0.104-1.03 0.1v0c-3.576-0.037-6.662-1.907-9.258-5.61v0c-0.397-0.569-0.854-1.246-1.37-2.031-0.516-0.778-0.894-1.343-1.132-1.695-0.238-0.345-0.517-0.725-0.836-1.138-0.312-0.413-0.587-0.722-0.827-0.926-0.247-0.204-0.507-0.372-0.781-0.502v0c-0.281-0.11-0.754-0.169-1.42-0.176v0c-0.202-0.002-0.356 0.003-0.464 0.016-0.101 0.012-0.202 0.069-0.304 0.168-0.102 0.106-0.154 0.261-0.156 0.462v0l-0.058 5.625c-0.018 1.714 0.072 2.827 0.268 3.341v0c0.124 0.331 0.575 0.604 1.353 0.82 0.778 0.21 1.331 0.316 1.66 0.32v0c0.108 0.001 0.159 0.18 0.156 0.536v0c-0.002 0.235-0.031 0.426-0.087 0.573v0c-2.553-0.154-4.212-0.235-4.978-0.242v0l-4.669 0.143c-0.08-0.075-0.118-0.304-0.114-0.687v0c0.003-0.329 0.045-0.494 0.126-0.492v0c0.356 0.004 0.854-0.069 1.494-0.217 0.64-0.148 1.025-0.336 1.155-0.563v0c0.178-0.307 0.278-1.506 0.299-3.596v0l0.149-14.477c0.016-1.512-0.061-2.612-0.228-3.299v0c-0.079-0.209-0.453-0.405-1.123-0.586-0.677-0.188-1.18-0.284-1.51-0.288v0c-0.108-0.001-0.16-0.153-0.156-0.455v0c0.003-0.336 0.059-0.554 0.168-0.654v0l4.596 0.128c0.759 0.008 1.664-0.01 2.713-0.053 1.049-0.043 1.943-0.061 2.682-0.053z" fill="#000000" data-fill-palette-color="primary"></path><path d="M169.73 3.199c1.694 0.458 3.088 0.816 4.179 1.076 1.092 0.259 2.501 0.566 4.227 0.921 1.726 0.355 3.063 0.644 4.011 0.87v0c0.621 0.148 1.51 0.217 2.665 0.208v0l-0.558 5.494c-0.218 0.135-0.537 0.152-0.956 0.053v0c-0.222-0.053-0.332-0.144-0.328-0.275v0c-0.016-1.475-0.23-2.479-0.642-3.013-0.412-0.533-1.328-0.968-2.747-1.305v0c-2.629-0.624-4.04-0.763-4.233-0.415v0c-0.412 0.745-0.818 1.961-1.219 3.649v0l-3.196 13.458c-0.342 1.439-0.505 2.619-0.489 3.541v0c0.01 0.189 0.32 0.442 0.928 0.76 0.61 0.311 1.039 0.496 1.288 0.554v0c0.098 0.023 0.103 0.221 0.015 0.594v0c-0.048 0.203-0.115 0.37-0.202 0.501v0c-2.455-0.714-3.883-1.119-4.282-1.213v0c-0.124-0.03-1.63-0.321-4.517-0.876v0c-0.075-0.121-0.08-0.319-0.014-0.594v0c0.082-0.347 0.173-0.508 0.27-0.485v0c0.327 0.078 0.825 0.117 1.496 0.117 0.668 0.007 1.063-0.083 1.183-0.269v0c0.335-0.625 0.686-1.709 1.052-3.252v0l3.203-13.488c0.514-2.165 0.704-3.473 0.57-3.926v0c-0.108-0.419-1.404-0.924-3.889-1.514v0c-1.413-0.335-2.423-0.358-3.031-0.067-0.608 0.291-1.251 1.092-1.928 2.402v0c-0.056 0.118-0.195 0.151-0.417 0.098v0c-0.425-0.101-0.705-0.261-0.839-0.48v0l1.981-5.156c1.028 0.527 1.853 0.865 2.474 1.013v0c0.942 0.224 2.256 0.564 3.945 1.019z" fill="#000000" data-fill-palette-color="primary"></path><path d="M199.187 13.192v0c0.833 0.452 1.897 0.958 3.192 1.516v0c-0.12 0.6-0.952 7.426-2.496 20.478v0c-0.002 0.06 0.032 0.109 0.103 0.148v0c0.089 0.048 0.169 0.034 0.241-0.042v0c5.001-3.968 9.059-7.271 12.174-9.908v0c0 0 1.18-1.103 3.541-3.308v0c1.387 0.868 2.296 1.419 2.728 1.654v0c1.388 0.754 2.667 1.391 3.837 1.912v0c-0.044 0.236-0.103 0.422-0.177 0.558v0c-0.17 0.313-0.311 0.439-0.423 0.378v0l-0.062-0.034c-0.248-0.135-0.613-0.237-1.095-0.308-0.485-0.08-0.871-0.094-1.158-0.043v0c-0.375 0.056-0.917 0.737-1.626 2.042v0c-0.193 0.354-2.566 4.962-7.12 13.824v0c-0.673 1.294-1.066 2.419-1.179 3.375v0c-0.021 0.249 0.222 0.606 0.726 1.072 0.502 0.456 0.877 0.752 1.125 0.886v0c0.089 0.048 0.048 0.229-0.122 0.542v0c-0.112 0.207-0.224 0.364-0.337 0.471v0c-2.183-1.331-3.488-2.113-3.913-2.343v0c-0.112-0.061-1.489-0.736-4.131-2.027v0c-0.04-0.137 0.011-0.338 0.156-0.603v0c0.16-0.295 0.285-0.419 0.374-0.371v0c0.224 0.122 0.597 0.252 1.119 0.39 0.522 0.138 0.913 0.205 1.175 0.202v0c0.349-0.009 0.744-0.418 1.183-1.227v0l0.972-1.79 6.036-12.061c0.172-0.373 0.338-0.826 0.497-1.359 0.163-0.539 0.188-0.839 0.076-0.9v0c-0.047-0.026-0.147 0.024-0.299 0.148v0l-16.173 13.002c-0.951 0.738-1.631 0.996-2.038 0.775v0c-0.065-0.035-0.153-0.113-0.263-0.235v0l2.933-23.774c-1.215 2.124-2.624 4.556-4.227 7.295-1.6 2.734-2.926 4.985-3.978 6.754-1.044 1.766-1.578 2.673-1.604 2.72v0c-0.218 0.402-0.309 0.731-0.273 0.987 0.04 0.251 0.355 0.648 0.948 1.192 0.589 0.534 0.996 0.862 1.221 0.984v0c0.095 0.051 0.05 0.245-0.133 0.582v0c-0.099 0.183-0.208 0.327-0.326 0.431v0c-2.183-1.331-3.455-2.095-3.815-2.29v0c-0.041-0.022-1.383-0.679-4.025-1.969v0c-0.051-0.173-0.016-0.372 0.106-0.596v0c0.17-0.313 0.311-0.439 0.423-0.378v0c0.313 0.17 0.815 0.351 1.506 0.543 0.7 0.189 1.205 0.238 1.516 0.146v0c0.582-0.212 1.316-1.079 2.204-2.6v0c1.309-2.31 2.608-4.584 3.9-6.82 1.285-2.239 2.301-3.99 3.047-5.251 0.741-1.265 1.209-2.078 1.405-2.438v0c0.305-0.561 0.504-1.034 0.599-1.419v0c0.034-0.218-0.258-0.588-0.878-1.108-0.617-0.526-1.082-0.874-1.395-1.044v0c-0.089-0.048-0.048-0.229 0.122-0.542v0c0.135-0.248 0.27-0.392 0.407-0.433v0c0.371 0.232 0.779 0.481 1.225 0.746 0.448 0.274 0.857 0.527 1.228 0.759 0.371 0.232 0.778 0.469 1.221 0.709z" fill="#000000" data-fill-palette-color="primary"></path><path d="M234.288 35.483v0c0.837 0.777 2.332 2.091 4.484 3.942 2.147 1.856 3.746 3.27 4.796 4.245v0c-0.429 0.61-0.949 1.462-1.56 2.555-0.611 1.083-1.002 1.757-1.173 2.019v0c-0.18 0.007-0.391-0.102-0.633-0.326-0.246-0.229-0.318-0.419-0.214-0.569v0c0.675-1.29 0.896-2.314 0.663-3.071-0.242-0.757-0.802-1.542-1.679-2.356v0l-1.884-1.749c-1.611-1.495-2.546-2.138-2.804-1.929v0c-0.51 0.361-1.286 1.104-2.328 2.227v0l-4.17 4.493c-0.105 0.113 0.244 0.543 1.046 1.288v0l1.486 1.378c0.527 0.489 0.906 0.841 1.138 1.057 0.236 0.219 0.52 0.413 0.849 0.582 0.334 0.164 0.545 0.272 0.633 0.325 0.097 0.053 0.31 0.022 0.638-0.095 0.329-0.107 0.551-0.204 0.667-0.288 0.116-0.085 0.429-0.294 0.94-0.628v0c0.139-0.11 0.338-0.044 0.599 0.199v0c0.227 0.21 0.343 0.406 0.35 0.586v0l-4.924 5.306c-0.142 0.005-0.327-0.097-0.554-0.307v0c-0.241-0.224-0.323-0.437-0.245-0.641v0c0.343-0.626 0.584-1.109 0.724-1.446 0.14-0.338 0.208-0.555 0.204-0.65-0.003-0.085-0.025-0.22-0.065-0.404v0c-0.104-0.372-1.028-1.367-2.772-2.986v0c-1.345-1.248-2.095-1.789-2.251-1.621v0l-4.039 4.353c-1.129 1.217-1.837 2.147-2.122 2.79v0c-0.12 0.237 0.429 0.921 1.646 2.05v0l1.352 1.255c1.739 1.614 3.065 2.547 3.978 2.798v0c0.418 0.113 1.042 0.073 1.872-0.12 0.82-0.192 1.665-0.55 2.535-1.071v0c0.135-0.076 0.316-0.009 0.543 0.2v0c0.355 0.329 0.538 0.601 0.551 0.815v0c-0.322 0.159-0.829 0.414-1.52 0.762-0.691 0.349-1.246 0.636-1.666 0.862-0.415 0.22-0.888 0.487-1.418 0.801-0.531 0.305-0.944 0.582-1.239 0.831v0c-0.956-0.887-2.447-2.303-4.474-4.249-2.023-1.951-3.689-3.534-5-4.75v0l-3.474-3.074c-0.004-0.104 0.106-0.277 0.33-0.519 0.229-0.246 0.37-0.344 0.424-0.294v0c0.246 0.229 0.668 0.501 1.265 0.816 0.601 0.311 1.026 0.425 1.275 0.345v0c0.338-0.108 1.219-0.928 2.641-2.459v0l9.849-10.612c1.029-1.108 1.712-1.973 2.05-2.594v0c0.083-0.208-0.065-0.606-0.444-1.197-0.369-0.59-0.677-1-0.923-1.228v0c-0.074-0.069-0.008-0.214 0.198-0.435v0c0.229-0.246 0.414-0.372 0.556-0.378v0c0.939 0.945 2.036 2 3.293 3.166z" fill="#000000" data-fill-palette-color="primary"></path><path d="M248.47 78.862l9.834-6.73c1.287-0.881 2.164-1.587 2.631-2.119v0c0.126-0.184 0.041-0.66-0.255-1.426-0.295-0.776-0.535-1.299-0.721-1.571v0c-0.057-0.083 0.034-0.206 0.272-0.369 0.244-0.167 0.436-0.237 0.576-0.212v0c0.164 0.287 0.502 0.858 1.014 1.714 0.506 0.859 0.955 1.574 1.346 2.145v0c0.376 0.549 0.882 1.217 1.518 2.003 0.63 0.79 0.997 1.26 1.099 1.41v0c-0.101 0.126-0.246 0.254-0.434 0.383v0c-0.25 0.171-0.403 0.215-0.46 0.131v0c-0.144-0.211-0.543-0.61-1.198-1.196-0.652-0.596-1.067-0.862-1.243-0.799v0c-0.772 0.276-1.81 0.86-3.113 1.753v0l-12.014 8.222c-1.303 0.892-2.756 1.935-4.358 3.129v0c-0.14-0.026-0.318-0.197-0.535-0.514v0c-0.247-0.361-0.245-0.875 0.007-1.543v0l8.995-24.165-13.495 9.236c-1.392 0.953-2.323 1.7-2.791 2.241v0c-0.118 0.138-0.029 0.594 0.265 1.37 0.3 0.772 0.522 1.263 0.667 1.474v0c0.042 0.061-0.061 0.184-0.309 0.37-0.242 0.182-0.431 0.287-0.566 0.314v0c-1.337-2.18-2.114-3.428-2.33-3.744v0l-2.647-3.527c0.019-0.103 0.156-0.241 0.412-0.417v0c0.294-0.201 0.462-0.271 0.503-0.21v0c0.205 0.3 0.611 0.726 1.218 1.28 0.616 0.555 1.04 0.799 1.27 0.731v0c0.693-0.165 1.756-0.737 3.187-1.716v0l12.422-8.502c1.032-0.706 1.773-1.319 2.223-1.839v0c0.126-0.184 0.034-0.646-0.277-1.386-0.309-0.749-0.565-1.271-0.766-1.565v0c-0.061-0.089 0.042-0.224 0.308-0.407 0.261-0.178 0.463-0.252 0.607-0.22v0c1.085 1.668 1.8 2.755 2.146 3.26v0c0.752 1.098 1.348 1.928 1.789 2.489v0c-0.896 1.761-3.615 8.868-8.158 21.319v0c0.402-0.186 0.856-0.451 1.361-0.797z" fill="#000000" data-fill-palette-color="primary"></path><path d="M272.446 89.115c0.577 1.657 1.067 3.01 1.468 4.059 0.401 1.048 0.942 2.385 1.622 4.01 0.68 1.625 1.194 2.893 1.543 3.803v0c0.228 0.596 0.672 1.369 1.331 2.319v0l-4.853 2.636c-0.234-0.105-0.428-0.358-0.582-0.76v0c-0.082-0.213-0.068-0.355 0.042-0.426v0c1.21-0.845 1.918-1.588 2.126-2.229 0.208-0.641 0.051-1.643-0.471-3.004v0c-0.966-2.523-1.648-3.767-2.044-3.73v0c-0.847 0.08-2.081 0.43-3.7 1.05v0l-12.917 4.948c-1.381 0.529-2.448 1.06-3.201 1.593v0c-0.15 0.115-0.185 0.513-0.104 1.194 0.087 0.679 0.177 1.138 0.268 1.377v0c0.036 0.094-0.125 0.21-0.483 0.347v0c-0.195 0.075-0.371 0.113-0.527 0.115v0c-0.794-2.431-1.265-3.838-1.412-4.22v0c-0.046-0.119-0.653-1.527-1.823-4.225v0c0.058-0.13 0.219-0.246 0.483-0.347v0c0.333-0.127 0.517-0.144 0.553-0.049v0c0.12 0.314 0.369 0.748 0.746 1.301 0.371 0.556 0.667 0.831 0.889 0.825v0c0.705-0.076 1.798-0.397 3.279-0.964v0l12.946-4.959c2.078-0.796 3.266-1.377 3.564-1.743v0c0.286-0.325-0.028-1.681-0.941-4.065v0c-0.519-1.356-1.07-2.203-1.654-2.541-0.583-0.338-1.607-0.417-3.071-0.238v0c-0.129 0.021-0.234-0.076-0.315-0.289v0c-0.156-0.408-0.182-0.729-0.078-0.964v0l5.376-1.271c0.144 1.147 0.33 2.018 0.558 2.615v0c0.346 0.904 0.807 2.181 1.382 3.832z" fill="#000000" data-fill-palette-color="primary"></path><path d="M34.683 177.054v0c0.335 0.908 0.774 2.057 1.316 3.448 0.542 1.391 0.898 2.316 1.067 2.776v0c1.441 3.903 1.413 7.37-0.083 10.402-1.492 3.022-3.796 5.109-6.911 6.258v0c-3.474 1.282-6.781 1.252-9.92-0.09-3.135-1.351-5.418-3.965-6.849-7.842v0c-0.107-0.29-0.401-1.156-0.884-2.597-0.475-1.444-0.903-2.64-1.281-3.589v0l-1.71-4.313c0.044-0.095 0.211-0.196 0.501-0.303v0c0.334-0.123 0.514-0.15 0.539-0.081v0c0.116 0.315 0.369 0.748 0.759 1.3 0.396 0.549 0.723 0.844 0.982 0.884v0c0.351 0.057 1.506-0.277 3.468-1v0l13.582-5.013c1.419-0.524 2.419-0.986 3.002-1.387v0c0.168-0.148 0.216-0.57 0.144-1.268-0.062-0.693-0.152-1.198-0.268-1.513v0c-0.035-0.095 0.09-0.194 0.373-0.299v0c0.315-0.116 0.538-0.145 0.668-0.085v0c0.41 1.267 0.912 2.705 1.505 4.312zM30.925 180.236v0l-14.235 5.254c-1.003 0.37-1.847 0.886-2.534 1.548v0c-0.205 0.183-0.148 0.889 0.169 2.119 0.318 1.23 0.596 2.169 0.836 2.818v0c2.032 5.505 6.607 6.943 13.726 4.316v0c2.73-1.008 4.787-2.587 6.172-4.738 1.382-2.158 1.559-4.627 0.533-7.408v0l-0.067-0.18c-0.954-2.585-1.677-3.952-2.169-4.1v0c-0.543-0.151-1.353-0.027-2.431 0.371z" fill="#000000" data-fill-palette-color="primary"></path><path d="M50.081 207.649l0.102 0.346-12.398 17.721c-0.737 1.055-1.29 1.879-1.658 2.472v0c-0.23 0.344-0.264 0.847-0.105 1.511 0.16 0.664 0.325 1.121 0.495 1.371v0c0.057 0.083-0.115 0.261-0.514 0.533v0c-0.089 0.061-0.208 0.113-0.357 0.158v0c-1.333-2.182-2.071-3.379-2.215-3.59v0c-0.015-0.022-0.903-1.211-2.662-3.567v0c0.027-0.14 0.174-0.294 0.443-0.46 0.274-0.171 0.44-0.214 0.496-0.131v0c0.174 0.255 0.443 0.536 0.806 0.842 0.363 0.306 0.65 0.435 0.862 0.388v0c0.199-0.078 0.381-0.174 0.548-0.288v0c0.272-0.185 0.57-0.441 0.893-0.767 0.317-0.322 0.559-0.588 0.724-0.798v0l0.265-0.364 2.689-3.735c0.047-0.122 0.05-0.213 0.008-0.274v0c-0.503-0.869-1.019-1.693-1.549-2.47v0c-0.749-1.1-1.716-2.405-2.901-3.916v0l-0.199-0.096-4.408 1.015c-1.301 0.358-2.152 0.673-2.552 0.946v0c-0.3 0.204-0.452 0.434-0.457 0.69v0c-0.021 0.291 0.065 0.68 0.258 1.166 0.193 0.486 0.354 0.824 0.483 1.013v0c0.042 0.061-0.062 0.184-0.31 0.369-0.242 0.181-0.43 0.289-0.561 0.322v0c-1.333-2.182-2.022-3.307-2.068-3.374v0c-0.288-0.422-0.55-0.784-0.788-1.085-0.238-0.301-0.501-0.639-0.788-1.013-0.287-0.374-0.562-0.735-0.825-1.084v0c0.027-0.14 0.156-0.29 0.39-0.449v0c0.294-0.201 0.47-0.259 0.527-0.176v0c0.174 0.255 0.45 0.547 0.828 0.875 0.378 0.328 0.713 0.503 1.004 0.524v0c0.875 0.054 2.203-0.127 3.984-0.544v0l17.9-4.134c0.136-0.027 0.345-0.085 0.627-0.171 0.286-0.081 0.501-0.142 0.644-0.183 0.147-0.035 0.338-0.071 0.572-0.109 0.234-0.038 0.419-0.054 0.554-0.048 0.125 0.004 0.272 0.018 0.442 0.041 0.17 0.022 0.314 0.079 0.432 0.169 0.124 0.086 0.237 0.205 0.339 0.354zM36.249 212.11v0c0.705 1.13 1.194 1.895 1.466 2.295v0c0.632 0.928 1.32 1.866 2.064 2.815v0l0.221-0.017 5.241-7.329-8.913 2.085c-0.083 0.057-0.11 0.107-0.079 0.151z" fill="#000000" data-fill-palette-color="primary"></path><path d="M75.088 233.219l0.208 0.294-6.014 20.774c-0.357 1.237-0.614 2.195-0.772 2.875v0c-0.106 0.399 0.023 0.887 0.388 1.464 0.365 0.577 0.669 0.956 0.911 1.138v0c0.081 0.061-0.024 0.284-0.315 0.671v0c-0.065 0.086-0.16 0.174-0.286 0.264v0c-1.966-1.636-3.051-2.53-3.255-2.683v0c-0.021-0.016-1.245-0.855-3.671-2.516v0c-0.02-0.141 0.07-0.334 0.271-0.579 0.204-0.25 0.347-0.345 0.427-0.284v0c0.247 0.186 0.592 0.365 1.034 0.537 0.442 0.172 0.756 0.202 0.942 0.089v0c0.163-0.138 0.305-0.288 0.426-0.45v0c0.198-0.263 0.397-0.601 0.597-1.013 0.196-0.407 0.339-0.737 0.428-0.99v0l0.133-0.43 1.339-4.403c0.005-0.13-0.021-0.218-0.081-0.262v0c-0.756-0.66-1.511-1.273-2.263-1.838v0c-1.064-0.799-2.401-1.722-4.009-2.77v0l-0.22-0.027-3.844 2.384c-1.116 0.759-1.819 1.332-2.11 1.719v0c-0.218 0.29-0.288 0.557-0.21 0.8v0c0.074 0.282 0.281 0.623 0.62 1.021 0.34 0.398 0.601 0.666 0.784 0.803v0c0.059 0.044 0.001 0.194-0.173 0.449-0.171 0.25-0.313 0.412-0.428 0.486v0c-1.966-1.636-2.981-2.477-3.046-2.526v0c-0.409-0.307-0.774-0.564-1.096-0.773-0.323-0.208-0.68-0.443-1.073-0.704-0.392-0.261-0.769-0.515-1.13-0.76v0c-0.02-0.141 0.055-0.325 0.224-0.551v0c0.214-0.285 0.361-0.397 0.441-0.336v0c0.247 0.186 0.603 0.373 1.067 0.561 0.464 0.188 0.837 0.246 1.119 0.172v0c0.846-0.231 2.044-0.831 3.596-1.801v0l15.607-9.69c0.12-0.07 0.299-0.191 0.538-0.365 0.245-0.169 0.428-0.296 0.551-0.38 0.128-0.081 0.296-0.177 0.506-0.289 0.21-0.111 0.379-0.186 0.509-0.223 0.12-0.036 0.264-0.071 0.431-0.105 0.168-0.034 0.323-0.027 0.464 0.021 0.145 0.042 0.29 0.117 0.435 0.226zM63.436 241.906v0c1.032 0.842 1.742 1.408 2.128 1.699v0c0.898 0.674 1.852 1.34 2.863 1.997v0l0.203-0.087 2.595-8.628-7.763 4.849c-0.061 0.081-0.069 0.137-0.026 0.17z" fill="#000000" data-fill-palette-color="primary"></path><path d="M86.556 241.381l4.128 2.024c0.694 0.325 1.527 0.686 2.499 1.082 0.972 0.396 1.793 0.751 2.463 1.065v0c0.761 0.357 1.473 0.832 2.137 1.426 0.671 0.596 1.26 1.296 1.767 2.097 0.514 0.805 0.8 1.745 0.861 2.82 0.06 1.075-0.175 2.178-0.705 3.31v0c-0.314 0.669-0.795 1.324-1.443 1.962-0.654 0.636-1.43 1.189-2.326 1.661-0.896 0.471-1.924 0.724-3.084 0.759-1.16 0.035-2.318-0.218-3.474-0.76v0c-1.296-0.608-2.035-1.351-2.217-2.231v0c-0.06-0.221 0.031-0.501 0.272-0.841v0c0.067-0.08 0.118-0.101 0.152-0.062v0c0.574 0.581 1.29 1.072 2.148 1.474v0c1.156 0.542 2.378 0.525 3.665-0.052 1.29-0.583 2.249-1.544 2.877-2.883v0c0.77-1.643 1.022-3.114 0.754-4.412-0.27-1.292-1.157-2.29-2.66-2.995v0c-1.041-0.488-1.887-0.788-2.54-0.901v0c-0.127-0.03-0.251 0.02-0.37 0.149-0.111 0.126-0.316 0.461-0.615 1.004-0.296 0.537-0.704 1.359-1.223 2.466v0l-5.802 12.379c-0.727 1.552-1.105 2.603-1.134 3.154v0c-0.024 0.352 0.273 0.788 0.89 1.308 0.62 0.513 1.08 0.84 1.378 0.98v0c0.091 0.043 0.061 0.225-0.09 0.548v0c-0.1 0.213-0.202 0.376-0.307 0.49v0c-2.258-1.2-3.735-1.962-4.429-2.287v0l-4.317-1.812c-0.036-0.098 0.028-0.321 0.191-0.668v0c0.14-0.298 0.243-0.432 0.31-0.4v0c0.323 0.151 0.806 0.292 1.449 0.423 0.644 0.131 1.072 0.12 1.285-0.032v0c0.296-0.203 0.887-1.251 1.774-3.144v0l6.144-13.109c0.642-1.369 1.026-2.403 1.153-3.1v0c0.021-0.22-0.238-0.553-0.778-1-0.532-0.45-0.95-0.746-1.254-0.888v0c-0.091-0.043-0.073-0.201 0.055-0.475v0c0.143-0.304 0.281-0.481 0.416-0.529z" fill="#000000" data-fill-palette-color="primary"></path><path d="M117.091 252.002l0.31 0.183 3.057 21.41c0.183 1.274 0.343 2.253 0.478 2.938v0c0.067 0.408 0.386 0.799 0.956 1.175 0.57 0.376 1.003 0.597 1.298 0.663v0c0.098 0.022 0.095 0.269-0.011 0.741v0c-0.024 0.105-0.074 0.224-0.153 0.359v0c-2.464-0.683-3.821-1.052-4.07-1.108v0c-0.026-0.006-1.486-0.267-4.38-0.785v0c-0.076-0.12-0.073-0.333 0.008-0.639 0.084-0.312 0.175-0.457 0.273-0.434v0c0.302 0.068 0.69 0.089 1.164 0.064 0.474-0.025 0.772-0.127 0.895-0.306v0c0.091-0.193 0.159-0.388 0.203-0.585v0c0.072-0.321 0.115-0.711 0.128-1.169 0.012-0.452 0.006-0.811-0.017-1.079v0l-0.055-0.446-0.59-4.564c-0.049-0.121-0.109-0.19-0.181-0.206v0c-0.961-0.291-1.901-0.539-2.819-0.745v0c-1.299-0.291-2.897-0.583-4.793-0.878v0l-0.212 0.067-2.524 3.753c-0.705 1.151-1.111 1.962-1.217 2.434v0c-0.079 0.354-0.033 0.626 0.137 0.816v0c0.183 0.227 0.512 0.452 0.986 0.676 0.473 0.223 0.822 0.36 1.044 0.409v0c0.072 0.016 0.081 0.177 0.027 0.481-0.053 0.298-0.116 0.504-0.19 0.619v0c-2.464-0.683-3.736-1.033-3.815-1.051v0c-0.498-0.112-0.938-0.196-1.317-0.253-0.38-0.058-0.802-0.125-1.267-0.202-0.465-0.077-0.913-0.153-1.344-0.228v0c-0.076-0.12-0.084-0.318-0.022-0.594v0c0.078-0.348 0.166-0.51 0.265-0.488v0c0.302 0.068 0.703 0.092 1.202 0.073 0.5-0.019 0.864-0.12 1.091-0.304v0c0.676-0.558 1.522-1.598 2.538-3.119v0l10.244-15.249c0.08-0.113 0.194-0.297 0.341-0.554 0.154-0.255 0.269-0.446 0.346-0.573 0.083-0.126 0.198-0.283 0.343-0.471 0.145-0.188 0.269-0.325 0.371-0.413 0.094-0.082 0.211-0.173 0.351-0.273 0.139-0.1 0.283-0.157 0.431-0.172 0.149-0.022 0.313-0.013 0.49 0.027zM110.039 264.712v0c1.287 0.343 2.166 0.568 2.639 0.673v0c1.095 0.245 2.239 0.46 3.43 0.645v0l0.15-0.163-1.181-8.933-5.083 7.612c-0.022 0.098-0.007 0.153 0.045 0.166z" fill="#000000" data-fill-palette-color="primary"></path><path d="M139.801 256.202v0c-1.149 0.012-2.042 0.108-2.679 0.29v0c-0.101 0.028-0.18 0.126-0.239 0.295-0.066 0.162-0.112 0.546-0.139 1.151-0.034 0.599-0.045 1.523-0.032 2.773v0l0.047 4.637c0.008 0.739 1.12 1.098 3.339 1.075v0l0.957-0.01c0.894-0.009 1.817-0.466 2.769-1.369 0.945-0.904 1.41-2.095 1.395-3.574v0c-0.036-3.549-1.842-5.305-5.418-5.268zM140.398 254.502v0c0.867-0.009 1.749 0.11 2.646 0.356 0.896 0.246 1.784 0.62 2.663 1.122 0.872 0.502 1.592 1.224 2.16 2.166 0.574 0.942 0.868 2.038 0.88 3.288v0c0.011 1.069-0.381 2.195-1.175 3.38-0.788 1.184-1.871 2.103-3.248 2.755v0c-0.254 0.103-0.327 0.232-0.218 0.386v0c1.305 2.668 2.793 4.898 4.465 6.689v0c2.481 2.656 4.487 3.977 6.019 3.961v0c0.082 0.154 0.124 0.335 0.127 0.543v0c0.002 0.229-0.036 0.42-0.115 0.576v0c-0.282 0.077-0.624 0.117-1.028 0.121v0c-3.576 0.037-6.699-1.77-9.371-5.418v0c-0.409-0.56-0.88-1.228-1.412-2.002-0.532-0.768-0.921-1.325-1.167-1.672-0.245-0.34-0.532-0.714-0.858-1.121-0.32-0.407-0.602-0.71-0.846-0.908-0.251-0.199-0.515-0.361-0.792-0.486v0c-0.283-0.105-0.758-0.154-1.423-0.147v0c-0.202 0.002-0.356 0.01-0.464 0.025-0.101 0.014-0.201 0.073-0.3 0.174-0.1 0.109-0.149 0.264-0.147 0.466v0l0.058 5.625c0.018 1.714 0.13 2.825 0.337 3.334v0c0.131 0.328 0.588 0.592 1.369 0.792 0.782 0.194 1.337 0.289 1.667 0.286v0c0.108-0.001 0.163 0.176 0.166 0.532v0c0.002 0.235-0.022 0.427-0.074 0.576v0c-2.555-0.101-4.216-0.148-4.982-0.14v0l-4.666 0.239c-0.081-0.073-0.124-0.301-0.128-0.684v0c-0.003-0.329 0.035-0.494 0.116-0.496v0c0.356-0.004 0.853-0.086 1.489-0.247 0.637-0.161 1.018-0.357 1.144-0.586v0c0.172-0.311 0.247-1.512 0.225-3.602v0l-0.149-14.477c-0.016-1.512-0.114-2.61-0.296-3.294v0c-0.083-0.208-0.461-0.395-1.135-0.563-0.681-0.174-1.186-0.26-1.515-0.256v0c-0.108 0.001-0.163-0.15-0.166-0.452v0c-0.003-0.336 0.048-0.555 0.155-0.657v0l4.598 0.033c0.759-0.008 1.663-0.044 2.711-0.108 1.048-0.065 1.942-0.101 2.68-0.109z" fill="#000000" data-fill-palette-color="primary"></path><path d="M161.949 252.396c1.719-0.353 3.125-0.659 4.217-0.919 1.092-0.259 2.489-0.619 4.19-1.078 1.701-0.459 3.025-0.801 3.973-1.026v0c0.621-0.148 1.446-0.485 2.475-1.013v0l1.971 5.159c-0.135 0.218-0.411 0.377-0.83 0.477v0c-0.222 0.053-0.361 0.02-0.417-0.098v0c-0.677-1.311-1.32-2.111-1.928-2.402-0.608-0.291-1.621-0.268-3.04 0.069v0c-2.629 0.624-3.951 1.135-3.967 1.533v0c-0.033 0.851 0.151 2.119 0.551 3.806v0l3.197 13.458c0.342 1.439 0.727 2.566 1.155 3.384v0c0.094 0.164 0.484 0.251 1.171 0.261 0.685 0.003 1.151-0.025 1.4-0.084v0c0.098-0.023 0.191 0.151 0.28 0.524v0c0.048 0.203 0.063 0.382 0.045 0.539v0c-2.514 0.466-3.971 0.746-4.37 0.841v0c-0.124 0.03-1.6 0.446-4.429 1.248v0c-0.121-0.075-0.215-0.25-0.28-0.524v0c-0.082-0.347-0.074-0.532 0.024-0.555v0c0.327-0.078 0.79-0.267 1.388-0.568 0.6-0.295 0.912-0.552 0.936-0.771v0c0.018-0.709-0.156-1.835-0.522-3.379v0l-3.204-13.487c-0.514-2.165-0.933-3.419-1.256-3.764v0c-0.285-0.326-1.67-0.194-4.155 0.396v0c-1.413 0.335-2.325 0.77-2.737 1.303-0.412 0.533-0.626 1.537-0.642 3.013v0c0.003 0.13-0.106 0.222-0.328 0.275v0c-0.425 0.101-0.747 0.084-0.966-0.051v0l-0.549-5.496c1.156 0.009 2.044-0.061 2.666-0.208v0c0.942-0.224 2.269-0.511 3.981-0.863z" fill="#000000" data-fill-palette-color="primary"></path><path d="M183.153 245.647v0c0.833-0.452 1.836-1.07 3.01-1.853v0c0.439 0.427 5.712 4.84 15.82 13.24v0c0.049 0.034 0.109 0.032 0.18-0.006v0c0.089-0.048 0.121-0.123 0.096-0.225v0c-0.607-6.355-1.169-11.557-1.685-15.606v0c0 0-0.283-1.59-0.848-4.771v0c1.483-0.691 2.441-1.154 2.871-1.388v0c1.388-0.754 2.619-1.48 3.693-2.178v0c0.174 0.166 0.298 0.316 0.372 0.452v0c0.17 0.313 0.199 0.5 0.087 0.561v0l-0.062 0.033c-0.248 0.135-0.533 0.385-0.854 0.751-0.331 0.363-0.553 0.679-0.667 0.948v0c-0.157 0.345 0.119 1.17 0.828 2.475v0c0.193 0.354 2.767 4.853 7.722 13.498v0c0.72 1.269 1.45 2.211 2.19 2.826v0c0.198 0.153 0.629 0.144 1.294-0.026 0.656-0.173 1.108-0.326 1.355-0.461v0c0.089-0.048 0.218 0.084 0.388 0.397v0c0.112 0.207 0.183 0.386 0.213 0.539v0c-2.305 1.107-3.671 1.776-4.096 2.007v0c-0.112 0.061-1.428 0.849-3.948 2.363v0c-0.137-0.04-0.277-0.194-0.422-0.46v0c-0.16-0.295-0.196-0.467-0.108-0.515v0c0.224-0.122 0.537-0.364 0.936-0.726 0.4-0.362 0.669-0.654 0.81-0.876v0c0.182-0.298 0.054-0.851-0.386-1.661v0l-0.972-1.789-6.833-11.628c-0.219-0.347-0.509-0.733-0.87-1.157-0.363-0.43-0.601-0.614-0.713-0.553v0c-0.047 0.026-0.06 0.136-0.039 0.33v0l2.105 20.645c0.101 1.2-0.052 1.91-0.46 2.131v0c-0.065 0.035-0.178 0.066-0.339 0.093v0l-18.348-15.401c1.121 2.175 2.394 4.681 3.819 7.517 1.423 2.83 2.589 5.168 3.5 7.014 0.914 1.837 1.383 2.779 1.409 2.826v0c0.218 0.402 0.445 0.657 0.681 0.766 0.232 0.103 0.737 0.055 1.515-0.146 0.769-0.204 1.266-0.366 1.49-0.489v0c0.095-0.051 0.233 0.091 0.416 0.428v0c0.099 0.183 0.161 0.352 0.184 0.508v0c-2.305 1.107-3.638 1.758-3.998 1.954v0c-0.041 0.022-1.322 0.791-3.842 2.306v0c-0.173-0.051-0.321-0.189-0.443-0.414v0c-0.17-0.313-0.199-0.5-0.086-0.561v0c0.313-0.17 0.738-0.493 1.275-0.968 0.54-0.485 0.856-0.882 0.948-1.192v0c0.139-0.603-0.188-1.691-0.982-3.264v0c-1.226-2.355-2.425-4.683-3.598-6.983-1.179-2.297-2.094-4.102-2.747-5.415-0.658-1.31-1.085-2.145-1.281-2.506v0c-0.305-0.561-0.593-0.986-0.864-1.274v0c-0.164-0.148-0.634-0.103-1.408 0.134-0.777 0.231-1.322 0.431-1.635 0.601v0c-0.089 0.048-0.218-0.084-0.388-0.397v0c-0.135-0.248-0.182-0.44-0.141-0.577v0c0.397-0.185 0.827-0.392 1.291-0.622 0.473-0.227 0.909-0.432 1.306-0.617 0.397-0.185 0.817-0.398 1.259-0.638z" fill="#000000" data-fill-palette-color="primary"></path><path d="M211.493 228.311v0c0.837-0.777 2.259-2.17 4.264-4.179 2.01-2.003 3.54-3.492 4.59-4.466v0c0.577 0.473 1.387 1.055 2.432 1.746 1.035 0.69 1.677 1.13 1.927 1.32v0c-0.007 0.18-0.131 0.383-0.373 0.607-0.246 0.229-0.441 0.286-0.584 0.171v0c-1.236-0.769-2.241-1.066-3.013-0.89-0.773 0.185-1.597 0.685-2.474 1.498v0l-1.884 1.749c-1.611 1.495-2.322 2.379-2.132 2.653v0c0.322 0.535 1.005 1.364 2.047 2.488v0l4.17 4.493c0.105 0.113 0.559-0.203 1.362-0.948v0l1.486-1.379c0.527-0.489 0.906-0.841 1.138-1.056 0.236-0.219 0.451-0.487 0.643-0.804 0.188-0.321 0.312-0.523 0.372-0.606 0.061-0.093 0.045-0.307-0.047-0.644-0.083-0.336-0.162-0.565-0.239-0.687-0.076-0.122-0.261-0.45-0.555-0.984v0c-0.099-0.146-0.018-0.341 0.243-0.583v0c0.227-0.21 0.43-0.312 0.61-0.305v0l4.925 5.305c-0.005 0.142-0.121 0.319-0.348 0.53v0c-0.241 0.224-0.46 0.29-0.656 0.196v0c-0.599-0.389-1.062-0.665-1.389-0.829-0.327-0.164-0.538-0.248-0.633-0.252-0.085-0.003-0.221 0.008-0.408 0.035v0c-0.379 0.076-1.44 0.924-3.184 2.542v0c-1.345 1.248-1.94 1.956-1.784 2.124v0l4.04 4.352c1.129 1.217 2.004 1.991 2.624 2.324v0c0.228 0.137 0.95-0.359 2.167-1.489v0l1.353-1.255c1.739-1.614 2.768-2.867 3.086-3.759v0c0.144-0.408 0.15-1.034 0.02-1.875-0.131-0.832-0.424-1.702-0.88-2.608v0c-0.066-0.14 0.014-0.316 0.241-0.526v0c0.355-0.329 0.639-0.492 0.852-0.489v0c0.135 0.333 0.351 0.857 0.648 1.572 0.297 0.715 0.542 1.29 0.735 1.725 0.188 0.43 0.42 0.922 0.694 1.474 0.265 0.552 0.51 0.984 0.736 1.297v0c-0.956 0.887-2.479 2.269-4.57 4.146-2.096 1.872-3.799 3.416-5.109 4.632v0l-3.324 3.236c-0.104-0.004-0.269-0.127-0.493-0.367-0.229-0.246-0.316-0.395-0.261-0.445v0c0.246-0.229 0.549-0.629 0.908-1.201 0.354-0.577 0.501-0.992 0.438-1.246v0c-0.082-0.345-0.834-1.284-2.256-2.816v0l-9.849-10.612c-1.029-1.108-1.84-1.854-2.435-2.238v0c-0.201-0.098-0.61 0.02-1.226 0.354-0.616 0.324-1.047 0.601-1.293 0.829v0c-0.074 0.069-0.214-0.008-0.42-0.229v0c-0.229-0.246-0.34-0.441-0.335-0.584v0c1.012-0.866 2.146-1.882 3.403-3.047z" fill="#000000" data-fill-palette-color="primary"></path><path d="M248.822 209.733l-9.834-6.73c-1.287-0.881-2.262-1.443-2.927-1.686v0c-0.217-0.051-0.63 0.2-1.237 0.754-0.616 0.555-1.018 0.969-1.203 1.241v0c-0.057 0.083-0.205 0.043-0.444-0.12-0.244-0.167-0.379-0.321-0.405-0.461v0c0.208-0.257 0.618-0.778 1.23-1.565 0.617-0.783 1.121-1.46 1.512-2.031v0c0.376-0.549 0.815-1.262 1.318-2.14 0.508-0.874 0.814-1.385 0.917-1.535v0c0.154 0.048 0.326 0.137 0.514 0.266v0c0.25 0.171 0.346 0.298 0.289 0.381v0c-0.144 0.211-0.371 0.727-0.682 1.549-0.32 0.824-0.418 1.306-0.294 1.448v0c0.537 0.62 1.457 1.376 2.76 2.268v0l12.014 8.222c1.303 0.892 2.802 1.869 4.495 2.93v0c0.026 0.14-0.069 0.368-0.286 0.684v0c-0.247 0.361-0.727 0.545-1.441 0.553v0l-25.782 0.363 13.495 9.236c1.392 0.953 2.425 1.55 3.099 1.791v0c0.171 0.06 0.564-0.188 1.181-0.744 0.611-0.559 0.988-0.944 1.133-1.155v0c0.042-0.061 0.194-0.01 0.456 0.154 0.257 0.16 0.423 0.298 0.499 0.414v0c-1.548 2.036-2.43 3.211-2.647 3.528v0l-2.33 3.744c-0.103 0.019-0.282-0.058-0.537-0.233v0c-0.294-0.201-0.42-0.332-0.378-0.393v0c0.205-0.3 0.456-0.832 0.752-1.599 0.295-0.776 0.369-1.259 0.222-1.449v0c-0.405-0.587-1.323-1.37-2.754-2.349v0l-12.422-8.501c-1.032-0.706-1.871-1.175-2.519-1.407v0c-0.217-0.051-0.615 0.202-1.192 0.76-0.587 0.56-0.981 0.986-1.182 1.281v0c-0.061 0.089-0.224 0.042-0.49-0.14-0.261-0.178-0.402-0.34-0.425-0.487v0c1.162-1.615 1.916-2.675 2.262-3.18v0c0.752-1.098 1.309-1.955 1.673-2.569v0c1.966 0.197 9.575 0.159 22.825-0.113v0c-0.319-0.308-0.731-0.634-1.235-0.98z" fill="#000000" data-fill-palette-color="primary"></path><path d="M241.003 187.196c0.678-1.619 1.217-2.953 1.619-4.001 0.401-1.048 0.892-2.404 1.471-4.068 0.58-1.664 1.044-2.951 1.393-3.86v0c0.228-0.596 0.415-1.468 0.558-2.615v0l5.372 1.28c0.105 0.234 0.08 0.552-0.074 0.954v0c-0.082 0.213-0.187 0.31-0.316 0.29v0c-1.464-0.179-2.488-0.1-3.07 0.238-0.583 0.338-1.135 1.188-1.657 2.55v0c-0.966 2.523-1.29 3.904-0.971 4.141v0c0.684 0.507 1.836 1.07 3.455 1.69v0l12.917 4.948c1.381 0.529 2.53 0.846 3.446 0.952v0c0.189 0.015 0.48-0.259 0.876-0.819 0.389-0.564 0.629-0.965 0.72-1.204v0c0.036-0.094 0.233-0.073 0.591 0.065v0c0.195 0.075 0.351 0.163 0.47 0.266v0c-1.033 2.339-1.622 3.701-1.769 4.084v0c-0.046 0.119-0.534 1.573-1.466 4.361v0c-0.13 0.058-0.327 0.037-0.591-0.064v0c-0.333-0.127-0.481-0.238-0.444-0.332v0c0.12-0.314 0.225-0.803 0.313-1.467 0.095-0.662 0.059-1.064-0.109-1.208v0c-0.575-0.415-1.604-0.906-3.085-1.473v0l-12.946-4.958c-2.078-0.796-3.35-1.157-3.817-1.084v0c-0.43 0.051-1.102 1.269-2.015 3.654v0c-0.519 1.356-0.675 2.354-0.467 2.995 0.208 0.641 0.917 1.384 2.126 2.229v0c0.11 0.071 0.124 0.213 0.042 0.426v0c-0.156 0.408-0.352 0.664-0.586 0.769v0l-4.849-2.645c0.659-0.95 1.102-1.723 1.331-2.319v0c0.346-0.904 0.857-2.162 1.532-3.775z" fill="#000000" data-fill-palette-color="primary"></path><path d="M2.908 144.177c0-5.422 4.395-9.817 9.818-9.817 5.422 0 9.817 4.395 9.817 9.817 0 5.422-4.395 9.817-9.817 9.817-5.422 0-9.817-4.395-9.818-9.817z" fill="#000000" data-fill-palette-color="primary"></path><path d="M256.976 144.177c0-5.422 4.395-9.817 9.817-9.817 5.422 0 9.817 4.395 9.817 9.817 0 5.422-4.395 9.817-9.817 9.817-5.422 0-9.817-4.395-9.817-9.817z" fill="#000000" data-fill-palette-color="primary"></path></g></svg></g></svg></g></svg></g><g></g></svg></g><defs></defs></svg><rect width="280" height="280" fill="none" stroke="none" visibility="hidden"></rect></g></svg></g></svg></svg></g></svg>